<svg width="72" height="72" viewBox="0 0 72 72" fill="none" xmlns="http://www.w3.org/2000/svg">
<path fill-rule="evenodd" clip-rule="evenodd" d="M36 71C55.33 71 71 55.33 71 36C71 16.67 55.33 1 36 1C16.67 1 1 16.67 1 36C1 55.33 16.67 71 36 71ZM36 72C55.8823 72 72 55.8823 72 36C72 16.1177 55.8823 0 36 0C16.1177 0 0 16.1177 0 36C0 55.8823 16.1177 72 36 72Z" fill="white"/>
<path fill-rule="evenodd" clip-rule="evenodd" d="M25 19H26V20V21V23H25V21V20V19ZM24 20V19C24 18.4477 24.4477 18 25 18H26C26.5523 18 27 18.4477 27 19V20H45V19C45 18.4477 45.4477 18 46 18H47C47.5523 18 48 18.4477 48 19V20H53C53.5523 20 54 20.4477 54 21V31H18V21C18 20.4477 18.4477 20 19 20H24ZM24 21H19V30H53V21H48V23C48 23.5523 47.5523 24 47 24H46C45.4477 24 45 23.5523 45 23V21H27V23C27 23.5523 26.5523 24 26 24H25C24.4477 24 24 23.5523 24 23V21ZM46 21V23H47V21V20V19H46V20V21ZM19 32V51H53V32H54V51C54 51.5523 53.5523 52 53 52V53C53 53.5523 52.5523 54 52 54H20C19.4477 54 19 53.5523 19 53V52C18.4477 52 18 51.5523 18 51V32H19ZM52 52V53H20V52H52ZM27 37C27 37.5523 26.5523 38 26 38C25.4477 38 25 37.5523 25 37C25 36.4477 25.4477 36 26 36C26.5523 36 27 36.4477 27 37ZM28 37C28 38.1046 27.1046 39 26 39C24.8954 39 24 38.1046 24 37C24 35.8954 24.8954 35 26 35C27.1046 35 28 35.8954 28 37ZM36 38C36.5523 38 37 37.5523 37 37C37 36.4477 36.5523 36 36 36C35.4477 36 35 36.4477 35 37C35 37.5523 35.4477 38 36 38ZM36 39C37.1046 39 38 38.1046 38 37C38 35.8954 37.1046 35 36 35C34.8954 35 34 35.8954 34 37C34 38.1046 34.8954 39 36 39ZM47 37C47 37.5523 46.5523 38 46 38C45.4477 38 45 37.5523 45 37C45 36.4477 45.4477 36 46 36C46.5523 36 47 36.4477 47 37ZM48 37C48 38.1046 47.1046 39 46 39C44.8954 39 44 38.1046 44 37C44 35.8954 44.8954 35 46 35C47.1046 35 48 35.8954 48 37ZM26 46C26.5523 46 27 45.5523 27 45C27 44.4477 26.5523 44 26 44C25.4477 44 25 44.4477 25 45C25 45.5523 25.4477 46 26 46ZM26 47C27.1046 47 28 46.1046 28 45C28 43.8954 27.1046 43 26 43C24.8954 43 24 43.8954 24 45C24 46.1046 24.8954 47 26 47ZM37 45C37 45.5523 36.5523 46 36 46C35.4477 46 35 45.5523 35 45C35 44.4477 35.4477 44 36 44C36.5523 44 37 44.4477 37 45ZM38 45C38 46.1046 37.1046 47 36 47C34.8954 47 34 46.1046 34 45C34 43.8954 34.8954 43 36 43C37.1046 43 38 43.8954 38 45ZM46 46C46.5523 46 47 45.5523 47 45C47 44.4477 46.5523 44 46 44C45.4477 44 45 44.4477 45 45C45 45.5523 45.4477 46 46 46ZM46 47C47.1046 47 48 46.1046 48 45C48 43.8954 47.1046 43 46 43C44.8954 43 44 43.8954 44 45C44 46.1046 44.8954 47 46 47Z" fill="white"/>
</svg>
