<svg width="72" height="72" viewBox="0 0 72 72" fill="none" xmlns="http://www.w3.org/2000/svg">
<path fill-rule="evenodd" clip-rule="evenodd" d="M41 20H40H32H18H16V21H18H32H40V31H41V21H46V32H45H41H40H38V33H40H41H46H48H55V49H54C54 46.2386 51.7614 44 49 44C46.2386 44 44 46.2386 44 49H31C31 46.2386 28.7614 44 26 44C23.2386 44 21 46.2386 21 49H18V33H24V32H18H17H16V33H17V49C17 49.5523 17.4477 50 18 50H21.1C21.3477 51.22 22.0396 52.2788 22.9995 53H16V54H26H49C51.419 54 53.4367 52.2822 53.9 50H55C55.5523 50 56 49.5523 56 49V33C56 32.4477 55.5523 32 55 32H48H47V21C47 20.4477 46.5523 20 46 20H41ZM45.1259 49.9997C45.0437 49.6801 45 49.3452 45 49C45 46.7909 46.7909 45 49 45C51.2091 45 53 46.7909 53 49C53 49.3453 52.9562 49.6804 52.874 50C52.4299 51.7252 50.8638 53 49 53C47.1362 53 45.5701 51.7252 45.126 50L45.1259 49.9997ZM30.9 50H44.1C44.3477 51.22 45.0396 52.2788 45.9995 53H29.0005C29.9604 52.2788 30.6523 51.22 30.9 50ZM30 49C30 49.3453 29.9562 49.6804 29.874 50C29.4299 51.7252 27.8638 53 26 53C24.1362 53 22.5701 51.7252 22.126 50L22.1259 49.9997C22.0437 49.6801 22 49.3452 22 49C22 46.7909 23.7909 45 26 45C28.2091 45 30 46.7909 30 49ZM26 50C26.5523 50 27 49.5523 27 49C27 48.4477 26.5523 48 26 48C25.4477 48 25 48.4477 25 49C25 49.5523 25.4477 50 26 50ZM26 51C27.1046 51 28 50.1046 28 49C28 47.8954 27.1046 47 26 47C24.8954 47 24 47.8954 24 49C24 50.1046 24.8954 51 26 51ZM50 49C50 49.5523 49.5523 50 49 50C48.4477 50 48 49.5523 48 49C48 48.4477 48.4477 48 49 48C49.5523 48 50 48.4477 50 49ZM51 49C51 50.1046 50.1046 51 49 51C47.8954 51 47 50.1046 47 49C47 47.8954 47.8954 47 49 47C50.1046 47 51 47.8954 51 49ZM32 24H16V25H32V24ZM16 28H28V29H16V28Z" fill="white"/>
<path fill-rule="evenodd" clip-rule="evenodd" d="M36 71C55.33 71 71 55.33 71 36C71 16.67 55.33 1 36 1C16.67 1 1 16.67 1 36C1 55.33 16.67 71 36 71ZM36 72C55.8823 72 72 55.8823 72 36C72 16.1177 55.8823 0 36 0C16.1177 0 0 16.1177 0 36C0 55.8823 16.1177 72 36 72Z" fill="white"/>
</svg>
