<svg width="72" height="72" viewBox="0 0 72 72" fill="none" xmlns="http://www.w3.org/2000/svg">
<path fill-rule="evenodd" clip-rule="evenodd" d="M40 19H32V21H40V19ZM41 21V18H31V21H18H16V22H18H19H31H41H53H54H56V21H54H41ZM22 36H24H25H32H40H47H48H50V35H48H40V32H32V35H24H22V36ZM39 33V35H33V33H39ZM47 37H48V51H52C52.5523 51 53 50.5523 53 50V23H54V50C54 51.1046 53.1046 52 52 52H48C48 53.1046 47.1046 54 46 54H26C24.8954 54 24 53.1046 24 52H20C18.8954 52 18 51.1046 18 50V23H19V50C19 50.5523 19.4477 51 20 51H24V37H25V51V52C25 52.5523 25.4477 53 26 53H46C46.5523 53 47 52.5523 47 52V51V37Z" fill="white"/>
<path fill-rule="evenodd" clip-rule="evenodd" d="M36 71C55.33 71 71 55.33 71 36C71 16.67 55.33 1 36 1C16.67 1 1 16.67 1 36C1 55.33 16.67 71 36 71ZM36 72C55.8823 72 72 55.8823 72 36C72 16.1177 55.8823 0 36 0C16.1177 0 0 16.1177 0 36C0 55.8823 16.1177 72 36 72Z" fill="white"/>
</svg>
