<svg width="72" height="72" viewBox="0 0 72 72" fill="none" xmlns="http://www.w3.org/2000/svg">
<path fill-rule="evenodd" clip-rule="evenodd" d="M36 71C55.33 71 71 55.33 71 36C71 16.67 55.33 1 36 1C16.67 1 1 16.67 1 36C1 55.33 16.67 71 36 71ZM36 72C55.8823 72 72 55.8823 72 36C72 16.1177 55.8823 0 36 0C16.1177 0 0 16.1177 0 36C0 55.8823 16.1177 72 36 72Z" fill="white"/>
<path fill-rule="evenodd" clip-rule="evenodd" d="M52.5 24.673L36 17.4542L19.5 24.673V25.0006V25.0017L19.5 25.005L19.5001 25.0166L19.5005 25.0591C19.5011 25.0959 19.5021 25.1496 19.5041 25.2193C19.5082 25.3589 19.5162 25.5629 19.5322 25.8253C19.5641 26.3499 19.6277 27.1082 19.7545 28.051C20.0079 29.9361 20.5143 32.5623 21.5267 35.5361C23.5516 41.4845 27.606 48.8359 35.7167 54.412L36 54.6068L36.2833 54.412C38.5689 52.8406 40.5333 51.1275 42.2213 49.3437L41.495 48.6563C39.9239 50.3167 38.1054 51.9152 36 53.3913C28.2993 47.9921 24.4246 40.9457 22.4733 35.2139C21.4857 32.3126 20.9921 29.7514 20.7455 27.9177C20.6223 27.0012 20.5609 26.2673 20.5303 25.7646C20.5196 25.5884 20.5127 25.4406 20.5082 25.3234L36 18.5458L51.4918 25.3234C51.4883 25.414 51.4834 25.5228 51.4764 25.649C51.4526 26.0775 51.4048 26.7052 51.3087 27.4942C51.1166 29.0726 50.7318 31.294 49.9617 33.8561L50.9194 34.1439C51.7087 31.5182 52.1037 29.2396 52.3014 27.615C52.4003 26.8025 52.4499 26.1529 52.4749 25.7045C52.4873 25.4802 52.4936 25.3062 52.4968 25.1872C52.4984 25.1278 52.4992 25.082 52.4996 25.0506L52.4999 25.0143L52.5 25.0044L52.5 25.0015V25V24.673ZM20 25L19.5 25.0006C19.5 25.0003 19.5 25 20 25ZM37 37H53V39H37V37ZM37 40V46H53V40H37ZM36 37C36 36.4477 36.4477 36 37 36H53C53.5523 36 54 36.4477 54 37V46C54 46.5523 53.5523 47 53 47H37C36.4477 47 36 46.5523 36 46V37ZM47 43H51V44H47V43Z" fill="white"/>
<path d="M36 23V32" stroke="white"/>
</svg>
